<mxfile host="Electron" agent="Mozilla/5.0 (Windows NT 10.0; Win64; x64) AppleWebKit/537.36 (KHTML, like Gecko) draw.io/26.0.4 Chrome/128.0.6613.186 Electron/32.2.5 Safari/537.36" version="26.0.4">
  <diagram name="Page-1" id="WyBRO5bYMH7f777iNQDs">
    <mxGraphModel dx="2434" dy="3325" grid="1" gridSize="10" guides="1" tooltips="1" connect="1" arrows="1" fold="1" page="1" pageScale="1" pageWidth="827" pageHeight="1169" math="0" shadow="0">
      <root>
        <mxCell id="0" />
        <mxCell id="1" parent="0" />
        <mxCell id="Gk5JcW4M2SsE9WxEgUDI-1" value="Credit Risk" style="rounded=1;whiteSpace=wrap;html=1;" parent="1" vertex="1">
          <mxGeometry x="70" y="340" width="120" height="60" as="geometry" />
        </mxCell>
        <mxCell id="Gk5JcW4M2SsE9WxEgUDI-2" value="Market Risk" style="rounded=1;whiteSpace=wrap;html=1;" parent="1" vertex="1">
          <mxGeometry x="70" y="420" width="120" height="60" as="geometry" />
        </mxCell>
        <mxCell id="Gk5JcW4M2SsE9WxEgUDI-3" value="Operationnal Risk" style="rounded=1;whiteSpace=wrap;html=1;" parent="1" vertex="1">
          <mxGeometry x="70" y="500" width="120" height="60" as="geometry" />
        </mxCell>
        <mxCell id="Gk5JcW4M2SsE9WxEgUDI-4" value="Liquidity Risk" style="rounded=1;whiteSpace=wrap;html=1;" parent="1" vertex="1">
          <mxGeometry x="70" y="670" width="120" height="60" as="geometry" />
        </mxCell>
        <mxCell id="17CiHSvj8oI6y1rhNHdv-1" value="Settlement Risk" style="rounded=1;whiteSpace=wrap;html=1;" parent="1" vertex="1">
          <mxGeometry x="70" y="580" width="120" height="60" as="geometry" />
        </mxCell>
        <mxCell id="17CiHSvj8oI6y1rhNHdv-2" value="Total regulatory capital" style="rounded=1;whiteSpace=wrap;html=1;" parent="1" vertex="1">
          <mxGeometry x="1266" y="280" width="120" height="60" as="geometry" />
        </mxCell>
        <mxCell id="17CiHSvj8oI6y1rhNHdv-3" value="Tier 1 Capital&lt;br&gt;(going concern capital)&lt;div&gt;&lt;br&gt;&lt;/div&gt;&lt;div&gt;&lt;font style=&quot;color: rgb(51, 51, 255);&quot;&gt;Fonds propres de base&lt;/font&gt;&lt;/div&gt;" style="rounded=1;whiteSpace=wrap;html=1;" parent="1" vertex="1">
          <mxGeometry x="1126" y="380" width="120" height="130" as="geometry" />
        </mxCell>
        <mxCell id="17CiHSvj8oI6y1rhNHdv-4" value="Tier 2 Capital&lt;div&gt;(gone concern capital)&lt;/div&gt;&lt;div&gt;&lt;br&gt;&lt;/div&gt;&lt;div&gt;&lt;font style=&quot;color: rgb(51, 51, 255);&quot;&gt;Fonds propres complémentaires&lt;br&gt;&lt;br&gt;&lt;/font&gt;&lt;/div&gt;&lt;div style=&quot;&quot;&gt;&lt;font style=&quot;color: rgb(0, 0, 0);&quot;&gt;Ex: dette subordonnée.&lt;/font&gt;&lt;/div&gt;" style="rounded=1;whiteSpace=wrap;html=1;align=center;" parent="1" vertex="1">
          <mxGeometry x="1386" y="380" width="130" height="140" as="geometry" />
        </mxCell>
        <mxCell id="17CiHSvj8oI6y1rhNHdv-5" value="Common Equity Tier 1 (CET1)&lt;div&gt;&lt;br&gt;&lt;/div&gt;&lt;div&gt;&lt;font&gt;&lt;font style=&quot;color: rgb(51, 51, 255);&quot;&gt;Fonds propres de base durs&lt;/font&gt;&lt;br&gt;&lt;br&gt;&lt;div style=&quot;&quot;&gt;&lt;span style=&quot;background-color: transparent;&quot;&gt;&lt;font style=&quot;color: rgb(0, 0, 0);&quot;&gt;Ex:&lt;/font&gt;&lt;/span&gt;&lt;/div&gt;&lt;/font&gt;&lt;/div&gt;&lt;div style=&quot;&quot;&gt;&lt;font style=&quot;color: rgb(0, 0, 0);&quot;&gt;- capital social libéré&lt;/font&gt;&lt;/div&gt;&lt;div style=&quot;&quot;&gt;&lt;font style=&quot;color: rgb(0, 0, 0);&quot;&gt;- réserves&lt;/font&gt;&lt;/div&gt;&lt;div style=&quot;&quot;&gt;&lt;font style=&quot;color: rgb(0, 0, 0);&quot;&gt;- bénéfices reportés&lt;/font&gt;&lt;/div&gt;" style="rounded=1;whiteSpace=wrap;html=1;align=center;" parent="1" vertex="1">
          <mxGeometry x="1020" y="560" width="146" height="180" as="geometry" />
        </mxCell>
        <mxCell id="17CiHSvj8oI6y1rhNHdv-6" value="Additional Tier 1 (AT1)&lt;div&gt;&lt;br&gt;&lt;/div&gt;&lt;div&gt;&lt;font style=&quot;color: rgb(51, 51, 255);&quot;&gt;Fonds propres de base supplémentaire&lt;/font&gt;&lt;/div&gt;&lt;div&gt;&lt;font style=&quot;color: rgb(51, 51, 255);&quot;&gt;&lt;br&gt;&lt;/font&gt;&lt;/div&gt;&lt;div style=&quot;&quot;&gt;&lt;font style=&quot;color: rgb(0, 0, 0);&quot;&gt;Ex: contingent convertible bonds (CoCos) - peut être transformé en CET1&lt;/font&gt;&lt;/div&gt;" style="rounded=1;whiteSpace=wrap;html=1;align=center;" parent="1" vertex="1">
          <mxGeometry x="1226" y="560" width="120" height="180" as="geometry" />
        </mxCell>
        <mxCell id="17CiHSvj8oI6y1rhNHdv-7" value="" style="endArrow=classic;html=1;rounded=0;exitX=0.5;exitY=1;exitDx=0;exitDy=0;entryX=0.5;entryY=0;entryDx=0;entryDy=0;" parent="1" source="17CiHSvj8oI6y1rhNHdv-2" target="17CiHSvj8oI6y1rhNHdv-3" edge="1">
          <mxGeometry width="50" height="50" relative="1" as="geometry">
            <mxPoint x="1146" y="520" as="sourcePoint" />
            <mxPoint x="1196" y="470" as="targetPoint" />
          </mxGeometry>
        </mxCell>
        <mxCell id="17CiHSvj8oI6y1rhNHdv-8" value="" style="endArrow=classic;html=1;rounded=0;exitX=0.5;exitY=1;exitDx=0;exitDy=0;entryX=0.5;entryY=0;entryDx=0;entryDy=0;" parent="1" source="17CiHSvj8oI6y1rhNHdv-2" target="17CiHSvj8oI6y1rhNHdv-4" edge="1">
          <mxGeometry width="50" height="50" relative="1" as="geometry">
            <mxPoint x="1336" y="350" as="sourcePoint" />
            <mxPoint x="1196" y="390" as="targetPoint" />
          </mxGeometry>
        </mxCell>
        <mxCell id="17CiHSvj8oI6y1rhNHdv-9" value="" style="endArrow=classic;html=1;rounded=0;exitX=0.5;exitY=1;exitDx=0;exitDy=0;entryX=0.5;entryY=0;entryDx=0;entryDy=0;" parent="1" source="17CiHSvj8oI6y1rhNHdv-3" target="17CiHSvj8oI6y1rhNHdv-6" edge="1">
          <mxGeometry width="50" height="50" relative="1" as="geometry">
            <mxPoint x="1336" y="350" as="sourcePoint" />
            <mxPoint x="1456" y="390" as="targetPoint" />
          </mxGeometry>
        </mxCell>
        <mxCell id="17CiHSvj8oI6y1rhNHdv-10" value="" style="endArrow=classic;html=1;rounded=0;exitX=0.5;exitY=1;exitDx=0;exitDy=0;entryX=0.5;entryY=0;entryDx=0;entryDy=0;" parent="1" source="17CiHSvj8oI6y1rhNHdv-3" target="17CiHSvj8oI6y1rhNHdv-5" edge="1">
          <mxGeometry width="50" height="50" relative="1" as="geometry">
            <mxPoint x="1196" y="520" as="sourcePoint" />
            <mxPoint x="1276" y="540" as="targetPoint" />
          </mxGeometry>
        </mxCell>
        <mxCell id="17CiHSvj8oI6y1rhNHdv-11" value="Credit Risk&lt;br&gt;&lt;br&gt;Ex:&lt;br&gt;- Prêts&lt;br&gt;&lt;div&gt;- Prêts hypothécaires&lt;/div&gt;&lt;div&gt;- Titres détenus par la banque&lt;/div&gt;&lt;div&gt;&amp;nbsp;- Dérivés sur titres&lt;/div&gt;" style="rounded=1;whiteSpace=wrap;html=1;" parent="1" vertex="1">
          <mxGeometry x="270" y="80" width="200" height="120" as="geometry" />
        </mxCell>
        <mxCell id="17CiHSvj8oI6y1rhNHdv-12" value="Counterparty Credit Risk&lt;div&gt;&lt;br&gt;&lt;/div&gt;&lt;div&gt;Ex:&lt;/div&gt;&lt;div&gt;- Dérivés&lt;/div&gt;&lt;div&gt;- SFTs&lt;/div&gt;" style="rounded=1;whiteSpace=wrap;html=1;" parent="1" vertex="1">
          <mxGeometry x="270" y="220" width="200" height="80" as="geometry" />
        </mxCell>
        <mxCell id="17CiHSvj8oI6y1rhNHdv-13" value="&lt;div&gt;Credit Valuation Adjustment&lt;/div&gt;&lt;div&gt;&lt;br&gt;&lt;/div&gt;&lt;div&gt;Ex:&lt;/div&gt;&lt;div&gt;- Dérivés&lt;/div&gt;" style="rounded=1;whiteSpace=wrap;html=1;" parent="1" vertex="1">
          <mxGeometry x="270" y="330" width="200" height="70" as="geometry" />
        </mxCell>
        <mxCell id="17CiHSvj8oI6y1rhNHdv-14" value="" style="endArrow=classic;html=1;rounded=0;exitX=1;exitY=0.5;exitDx=0;exitDy=0;entryX=0;entryY=0.5;entryDx=0;entryDy=0;" parent="1" source="Gk5JcW4M2SsE9WxEgUDI-1" target="17CiHSvj8oI6y1rhNHdv-11" edge="1">
          <mxGeometry width="50" height="50" relative="1" as="geometry">
            <mxPoint x="670" y="490" as="sourcePoint" />
            <mxPoint x="530" y="530" as="targetPoint" />
          </mxGeometry>
        </mxCell>
        <mxCell id="17CiHSvj8oI6y1rhNHdv-15" value="" style="endArrow=classic;html=1;rounded=0;exitX=1;exitY=0.5;exitDx=0;exitDy=0;entryX=0;entryY=0.5;entryDx=0;entryDy=0;" parent="1" source="Gk5JcW4M2SsE9WxEgUDI-1" target="17CiHSvj8oI6y1rhNHdv-12" edge="1">
          <mxGeometry width="50" height="50" relative="1" as="geometry">
            <mxPoint x="200" y="380" as="sourcePoint" />
            <mxPoint x="280" y="230" as="targetPoint" />
          </mxGeometry>
        </mxCell>
        <mxCell id="17CiHSvj8oI6y1rhNHdv-16" value="" style="endArrow=classic;html=1;rounded=0;exitX=1;exitY=0.5;exitDx=0;exitDy=0;entryX=0;entryY=0.5;entryDx=0;entryDy=0;" parent="1" source="Gk5JcW4M2SsE9WxEgUDI-1" target="17CiHSvj8oI6y1rhNHdv-13" edge="1">
          <mxGeometry width="50" height="50" relative="1" as="geometry">
            <mxPoint x="210" y="390" as="sourcePoint" />
            <mxPoint x="290" y="240" as="targetPoint" />
          </mxGeometry>
        </mxCell>
        <mxCell id="17CiHSvj8oI6y1rhNHdv-17" value="Foreign Exchange Risk" style="rounded=1;whiteSpace=wrap;html=1;" parent="1" vertex="1">
          <mxGeometry x="294" y="415" width="206" height="25" as="geometry" />
        </mxCell>
        <mxCell id="17CiHSvj8oI6y1rhNHdv-18" value="Interest Rate Risk" style="rounded=1;whiteSpace=wrap;html=1;" parent="1" vertex="1">
          <mxGeometry x="294" y="490" width="206" height="25" as="geometry" />
        </mxCell>
        <mxCell id="17CiHSvj8oI6y1rhNHdv-19" value="Equity Risk" style="rounded=1;whiteSpace=wrap;html=1;" parent="1" vertex="1">
          <mxGeometry x="294" y="525" width="206" height="25" as="geometry" />
        </mxCell>
        <mxCell id="17CiHSvj8oI6y1rhNHdv-20" value="Comodity Risk" style="rounded=1;whiteSpace=wrap;html=1;" parent="1" vertex="1">
          <mxGeometry x="294" y="450" width="206" height="25" as="geometry" />
        </mxCell>
        <mxCell id="17CiHSvj8oI6y1rhNHdv-21" value="Specific Risk" style="rounded=1;whiteSpace=wrap;html=1;" parent="1" vertex="1">
          <mxGeometry x="570" y="475" width="206" height="25" as="geometry" />
        </mxCell>
        <mxCell id="17CiHSvj8oI6y1rhNHdv-22" value="General Risk" style="rounded=1;whiteSpace=wrap;html=1;" parent="1" vertex="1">
          <mxGeometry x="570" y="444" width="206" height="25" as="geometry" />
        </mxCell>
        <mxCell id="17CiHSvj8oI6y1rhNHdv-23" value="Specific Risk" style="rounded=1;whiteSpace=wrap;html=1;" parent="1" vertex="1">
          <mxGeometry x="570" y="546" width="206" height="25" as="geometry" />
        </mxCell>
        <mxCell id="17CiHSvj8oI6y1rhNHdv-24" value="General Risk" style="rounded=1;whiteSpace=wrap;html=1;" parent="1" vertex="1">
          <mxGeometry x="570" y="515" width="206" height="25" as="geometry" />
        </mxCell>
        <mxCell id="17CiHSvj8oI6y1rhNHdv-25" value="" style="endArrow=classic;html=1;rounded=0;exitX=1;exitY=0.5;exitDx=0;exitDy=0;entryX=0;entryY=0.5;entryDx=0;entryDy=0;" parent="1" source="17CiHSvj8oI6y1rhNHdv-18" target="17CiHSvj8oI6y1rhNHdv-22" edge="1">
          <mxGeometry width="50" height="50" relative="1" as="geometry">
            <mxPoint x="200" y="380" as="sourcePoint" />
            <mxPoint x="280" y="375" as="targetPoint" />
          </mxGeometry>
        </mxCell>
        <mxCell id="17CiHSvj8oI6y1rhNHdv-26" value="" style="endArrow=classic;html=1;rounded=0;exitX=1;exitY=0.5;exitDx=0;exitDy=0;entryX=0;entryY=0.5;entryDx=0;entryDy=0;" parent="1" source="17CiHSvj8oI6y1rhNHdv-18" target="17CiHSvj8oI6y1rhNHdv-21" edge="1">
          <mxGeometry width="50" height="50" relative="1" as="geometry">
            <mxPoint x="510" y="506" as="sourcePoint" />
            <mxPoint x="580" y="467" as="targetPoint" />
          </mxGeometry>
        </mxCell>
        <mxCell id="17CiHSvj8oI6y1rhNHdv-27" value="" style="endArrow=classic;html=1;rounded=0;exitX=1;exitY=0.5;exitDx=0;exitDy=0;entryX=0;entryY=0.5;entryDx=0;entryDy=0;" parent="1" source="17CiHSvj8oI6y1rhNHdv-19" target="17CiHSvj8oI6y1rhNHdv-24" edge="1">
          <mxGeometry width="50" height="50" relative="1" as="geometry">
            <mxPoint x="510" y="513" as="sourcePoint" />
            <mxPoint x="580" y="498" as="targetPoint" />
          </mxGeometry>
        </mxCell>
        <mxCell id="17CiHSvj8oI6y1rhNHdv-28" value="" style="endArrow=classic;html=1;rounded=0;exitX=1;exitY=0.5;exitDx=0;exitDy=0;entryX=0;entryY=0.5;entryDx=0;entryDy=0;" parent="1" source="17CiHSvj8oI6y1rhNHdv-19" target="17CiHSvj8oI6y1rhNHdv-23" edge="1">
          <mxGeometry width="50" height="50" relative="1" as="geometry">
            <mxPoint x="510" y="548" as="sourcePoint" />
            <mxPoint x="580" y="538" as="targetPoint" />
          </mxGeometry>
        </mxCell>
        <mxCell id="17CiHSvj8oI6y1rhNHdv-29" value="" style="endArrow=classic;html=1;rounded=0;exitX=1;exitY=0.5;exitDx=0;exitDy=0;entryX=0;entryY=0.5;entryDx=0;entryDy=0;" parent="1" source="Gk5JcW4M2SsE9WxEgUDI-2" target="17CiHSvj8oI6y1rhNHdv-17" edge="1">
          <mxGeometry width="50" height="50" relative="1" as="geometry">
            <mxPoint x="510" y="548" as="sourcePoint" />
            <mxPoint x="580" y="569" as="targetPoint" />
          </mxGeometry>
        </mxCell>
        <mxCell id="17CiHSvj8oI6y1rhNHdv-30" value="" style="endArrow=classic;html=1;rounded=0;exitX=1;exitY=0.5;exitDx=0;exitDy=0;entryX=0;entryY=0.5;entryDx=0;entryDy=0;" parent="1" source="Gk5JcW4M2SsE9WxEgUDI-2" target="17CiHSvj8oI6y1rhNHdv-20" edge="1">
          <mxGeometry width="50" height="50" relative="1" as="geometry">
            <mxPoint x="200" y="460" as="sourcePoint" />
            <mxPoint x="304" y="437" as="targetPoint" />
          </mxGeometry>
        </mxCell>
        <mxCell id="17CiHSvj8oI6y1rhNHdv-31" value="" style="endArrow=classic;html=1;rounded=0;exitX=1;exitY=0.5;exitDx=0;exitDy=0;entryX=0;entryY=0.5;entryDx=0;entryDy=0;" parent="1" source="Gk5JcW4M2SsE9WxEgUDI-2" target="17CiHSvj8oI6y1rhNHdv-18" edge="1">
          <mxGeometry width="50" height="50" relative="1" as="geometry">
            <mxPoint x="200" y="460" as="sourcePoint" />
            <mxPoint x="304" y="472" as="targetPoint" />
          </mxGeometry>
        </mxCell>
        <mxCell id="17CiHSvj8oI6y1rhNHdv-32" value="" style="endArrow=classic;html=1;rounded=0;exitX=1;exitY=0.5;exitDx=0;exitDy=0;entryX=0;entryY=0.5;entryDx=0;entryDy=0;" parent="1" source="Gk5JcW4M2SsE9WxEgUDI-2" target="17CiHSvj8oI6y1rhNHdv-19" edge="1">
          <mxGeometry width="50" height="50" relative="1" as="geometry">
            <mxPoint x="200" y="460" as="sourcePoint" />
            <mxPoint x="304" y="512" as="targetPoint" />
          </mxGeometry>
        </mxCell>
        <mxCell id="17CiHSvj8oI6y1rhNHdv-33" value="Risk of Financial Loss" style="rounded=1;whiteSpace=wrap;html=1;" parent="1" vertex="1">
          <mxGeometry x="268" y="-1340" width="120" height="60" as="geometry" />
        </mxCell>
        <mxCell id="17CiHSvj8oI6y1rhNHdv-34" value="Risk Weighted Assets&lt;br&gt;(RWA)" style="rounded=1;whiteSpace=wrap;html=1;" parent="1" vertex="1">
          <mxGeometry x="470" y="-1340" width="130" height="60" as="geometry" />
        </mxCell>
        <mxCell id="17CiHSvj8oI6y1rhNHdv-35" value="Minimum Capital Requirement" style="rounded=1;whiteSpace=wrap;html=1;" parent="1" vertex="1">
          <mxGeometry x="680" y="-1340" width="120" height="60" as="geometry" />
        </mxCell>
        <mxCell id="17CiHSvj8oI6y1rhNHdv-36" value="" style="shape=flexArrow;endArrow=classic;html=1;rounded=0;exitX=1;exitY=0.5;exitDx=0;exitDy=0;entryX=0;entryY=0.5;entryDx=0;entryDy=0;" parent="1" source="17CiHSvj8oI6y1rhNHdv-33" target="17CiHSvj8oI6y1rhNHdv-34" edge="1">
          <mxGeometry width="50" height="50" relative="1" as="geometry">
            <mxPoint x="540" y="-1110" as="sourcePoint" />
            <mxPoint x="590" y="-1160" as="targetPoint" />
          </mxGeometry>
        </mxCell>
        <mxCell id="17CiHSvj8oI6y1rhNHdv-37" value="" style="shape=flexArrow;endArrow=classic;html=1;rounded=0;exitX=1;exitY=0.5;exitDx=0;exitDy=0;entryX=0;entryY=0.5;entryDx=0;entryDy=0;" parent="1" source="17CiHSvj8oI6y1rhNHdv-34" target="17CiHSvj8oI6y1rhNHdv-35" edge="1">
          <mxGeometry width="50" height="50" relative="1" as="geometry">
            <mxPoint x="390" y="-1300" as="sourcePoint" />
            <mxPoint x="480" y="-1300" as="targetPoint" />
          </mxGeometry>
        </mxCell>
        <mxCell id="lwn2VVbhmy-JmWrSxqAX-7" value="&lt;b&gt;&lt;font style=&quot;font-size: 16px;&quot;&gt;Assets&lt;/font&gt;&lt;/b&gt;&lt;br&gt;&lt;br&gt;Ex: Loans and nostro securities" style="rounded=0;whiteSpace=wrap;html=1;fillColor=#60a917;fontColor=#ffffff;strokeColor=#2D7600;" parent="1" vertex="1">
          <mxGeometry x="80" y="-1030" width="214" height="250" as="geometry" />
        </mxCell>
        <mxCell id="lwn2VVbhmy-JmWrSxqAX-8" value="&lt;b style=&quot;font-size: 16px;&quot;&gt;Liabilities&lt;br&gt;&lt;/b&gt;&lt;br&gt;Ex: Clients&#39; deposits" style="rounded=0;whiteSpace=wrap;html=1;fillColor=#e3c800;fontColor=#000000;strokeColor=#B09500;" parent="1" vertex="1">
          <mxGeometry x="294" y="-1030" width="214" height="150" as="geometry" />
        </mxCell>
        <mxCell id="lwn2VVbhmy-JmWrSxqAX-9" value="&lt;b&gt;&lt;font style=&quot;font-size: 16px;&quot;&gt;Capital &lt;/font&gt;&lt;/b&gt;(&amp;nbsp;&lt;span lang=&quot;en&quot; class=&quot;NA6bn BxUVEf ILfuVd&quot;&gt;&lt;span class=&quot;hgKElc&quot;&gt;&lt;b&gt;≈ equity)&lt;/b&gt;&lt;/span&gt;&lt;/span&gt;" style="rounded=0;whiteSpace=wrap;html=1;fillColor=#6a00ff;fontColor=#ffffff;strokeColor=#3700CC;" parent="1" vertex="1">
          <mxGeometry x="294" y="-880" width="214" height="100" as="geometry" />
        </mxCell>
        <mxCell id="lwn2VVbhmy-JmWrSxqAX-10" value="&lt;b&gt;&lt;font style=&quot;font-size: 16px;&quot;&gt;Assets&lt;/font&gt;&lt;/b&gt;&lt;br&gt;&lt;br&gt;Ex: Loans and nostro securities" style="rounded=0;whiteSpace=wrap;html=1;fillColor=#60a917;fontColor=#ffffff;strokeColor=#2D7600;" parent="1" vertex="1">
          <mxGeometry x="572" y="-1030" width="214" height="190" as="geometry" />
        </mxCell>
        <mxCell id="lwn2VVbhmy-JmWrSxqAX-11" value="&lt;b style=&quot;font-size: 16px;&quot;&gt;Liabilities&lt;br&gt;&lt;/b&gt;&lt;br&gt;Ex: Clients&#39; deposits" style="rounded=0;whiteSpace=wrap;html=1;fillColor=#e3c800;fontColor=#000000;strokeColor=#B09500;" parent="1" vertex="1">
          <mxGeometry x="786" y="-1030" width="214" height="150" as="geometry" />
        </mxCell>
        <mxCell id="lwn2VVbhmy-JmWrSxqAX-12" value="&lt;b&gt;&lt;font style=&quot;font-size: 16px;&quot;&gt;Capital &lt;/font&gt;&lt;/b&gt;(&amp;nbsp;&lt;span lang=&quot;en&quot; class=&quot;NA6bn BxUVEf ILfuVd&quot;&gt;&lt;span class=&quot;hgKElc&quot;&gt;&lt;b&gt;≈ equity)&lt;/b&gt;&lt;/span&gt;&lt;/span&gt;" style="rounded=0;whiteSpace=wrap;html=1;fillColor=#6a00ff;fontColor=#ffffff;strokeColor=#3700CC;" parent="1" vertex="1">
          <mxGeometry x="786" y="-880" width="214" height="40" as="geometry" />
        </mxCell>
        <mxCell id="lwn2VVbhmy-JmWrSxqAX-14" value="" style="shape=flexArrow;endArrow=classic;html=1;rounded=0;strokeColor=#005700;fillColor=#000000;width=7.142857142857142;endSize=5.2;endWidth=9.45578231292517;" parent="1" edge="1">
          <mxGeometry width="50" height="50" relative="1" as="geometry">
            <mxPoint x="678.5" y="-1030" as="sourcePoint" />
            <mxPoint x="679" y="-980" as="targetPoint" />
          </mxGeometry>
        </mxCell>
        <mxCell id="lwn2VVbhmy-JmWrSxqAX-16" value="" style="shape=flexArrow;endArrow=classic;html=1;rounded=0;strokeColor=#005700;fillColor=#000000;width=7.142857142857142;endSize=5.2;endWidth=9.45578231292517;" parent="1" edge="1">
          <mxGeometry width="50" height="50" relative="1" as="geometry">
            <mxPoint x="679.25" y="-840" as="sourcePoint" />
            <mxPoint x="678.75" y="-890" as="targetPoint" />
          </mxGeometry>
        </mxCell>
        <mxCell id="lwn2VVbhmy-JmWrSxqAX-22" value="&lt;b&gt;&lt;font style=&quot;font-size: 16px;&quot;&gt;Assets&lt;/font&gt;&lt;/b&gt;&lt;br&gt;&lt;br&gt;Ex: Loans and nostro securities" style="rounded=0;whiteSpace=wrap;html=1;fillColor=#60a917;fontColor=#ffffff;strokeColor=#2D7600;" parent="1" vertex="1">
          <mxGeometry x="80" y="-709" width="214" height="250" as="geometry" />
        </mxCell>
        <mxCell id="lwn2VVbhmy-JmWrSxqAX-23" value="&lt;b style=&quot;font-size: 16px;&quot;&gt;Liabilities&lt;br&gt;&lt;/b&gt;&lt;br&gt;Ex: Clients&#39; deposits" style="rounded=0;whiteSpace=wrap;html=1;fillColor=#e3c800;fontColor=#000000;strokeColor=#B09500;" parent="1" vertex="1">
          <mxGeometry x="294" y="-709" width="214" height="219" as="geometry" />
        </mxCell>
        <mxCell id="lwn2VVbhmy-JmWrSxqAX-24" value="&lt;b&gt;&lt;font style=&quot;font-size: 16px;&quot;&gt;Capital &lt;/font&gt;&lt;/b&gt;(&amp;nbsp;&lt;span lang=&quot;en&quot; class=&quot;NA6bn BxUVEf ILfuVd&quot;&gt;&lt;span class=&quot;hgKElc&quot;&gt;&lt;b&gt;≈ equity)&lt;/b&gt;&lt;/span&gt;&lt;/span&gt;" style="rounded=0;whiteSpace=wrap;html=1;fillColor=#6a00ff;fontColor=#ffffff;strokeColor=#3700CC;" parent="1" vertex="1">
          <mxGeometry x="294" y="-490" width="214" height="31" as="geometry" />
        </mxCell>
        <mxCell id="lwn2VVbhmy-JmWrSxqAX-25" value="&lt;b&gt;&lt;font style=&quot;font-size: 16px;&quot;&gt;Assets&lt;/font&gt;&lt;/b&gt;&lt;br&gt;&lt;br&gt;Ex: Loans and nostro securities" style="rounded=0;whiteSpace=wrap;html=1;fillColor=#60a917;fontColor=#ffffff;strokeColor=#2D7600;" parent="1" vertex="1">
          <mxGeometry x="572" y="-709" width="214" height="190" as="geometry" />
        </mxCell>
        <mxCell id="lwn2VVbhmy-JmWrSxqAX-26" value="&lt;b style=&quot;font-size: 16px;&quot;&gt;Liabilities&lt;br&gt;&lt;/b&gt;&lt;br&gt;Ex: Clients&#39; deposits" style="rounded=0;whiteSpace=wrap;html=1;fillColor=#e3c800;fontColor=#000000;strokeColor=#B09500;" parent="1" vertex="1">
          <mxGeometry x="786" y="-709" width="214" height="189" as="geometry" />
        </mxCell>
        <mxCell id="lwn2VVbhmy-JmWrSxqAX-28" value="" style="shape=flexArrow;endArrow=classic;html=1;rounded=0;strokeColor=#005700;fillColor=#000000;width=7.142857142857142;endSize=5.2;endWidth=9.45578231292517;" parent="1" edge="1">
          <mxGeometry width="50" height="50" relative="1" as="geometry">
            <mxPoint x="678.5" y="-709" as="sourcePoint" />
            <mxPoint x="679" y="-659" as="targetPoint" />
          </mxGeometry>
        </mxCell>
        <mxCell id="lwn2VVbhmy-JmWrSxqAX-29" value="" style="shape=flexArrow;endArrow=classic;html=1;rounded=0;strokeColor=#005700;fillColor=#000000;width=7.142857142857142;endSize=5.2;endWidth=9.45578231292517;" parent="1" edge="1">
          <mxGeometry width="50" height="50" relative="1" as="geometry">
            <mxPoint x="679.25" y="-519" as="sourcePoint" />
            <mxPoint x="678.75" y="-569" as="targetPoint" />
          </mxGeometry>
        </mxCell>
        <mxCell id="lwn2VVbhmy-JmWrSxqAX-35" value="" style="rounded=0;whiteSpace=wrap;html=1;fillColor=#a20025;fontColor=#ffffff;strokeColor=#6F0000;" parent="1" vertex="1">
          <mxGeometry x="786" y="-520" width="214" height="30" as="geometry" />
        </mxCell>
        <mxCell id="lwn2VVbhmy-JmWrSxqAX-36" value="" style="endArrow=none;dashed=1;html=1;dashPattern=1 3;strokeWidth=2;rounded=0;entryX=0;entryY=1;entryDx=0;entryDy=0;" parent="1" target="lwn2VVbhmy-JmWrSxqAX-35" edge="1">
          <mxGeometry width="50" height="50" relative="1" as="geometry">
            <mxPoint x="510" y="-490" as="sourcePoint" />
            <mxPoint x="500" y="-540" as="targetPoint" />
          </mxGeometry>
        </mxCell>
        <mxCell id="G4l_W7ruIQoK3Dyy_zI6-1" value="Before losses" style="text;html=1;align=center;verticalAlign=middle;whiteSpace=wrap;rounded=0;fontStyle=1;fontSize=26;" vertex="1" parent="1">
          <mxGeometry x="200" y="-1110" width="190" height="30" as="geometry" />
        </mxCell>
        <mxCell id="G4l_W7ruIQoK3Dyy_zI6-2" value="After losses" style="text;html=1;align=center;verticalAlign=middle;whiteSpace=wrap;rounded=0;fontStyle=1;fontSize=26;" vertex="1" parent="1">
          <mxGeometry x="720" y="-1110" width="184" height="30" as="geometry" />
        </mxCell>
        <mxCell id="G4l_W7ruIQoK3Dyy_zI6-3" value="Well capitalized" style="text;html=1;align=center;verticalAlign=middle;whiteSpace=wrap;rounded=0;fontStyle=1;fontSize=26;" vertex="1" parent="1">
          <mxGeometry x="-220" y="-920" width="220" height="30" as="geometry" />
        </mxCell>
        <mxCell id="G4l_W7ruIQoK3Dyy_zI6-4" value="Poorly capitalized" style="text;html=1;align=center;verticalAlign=middle;whiteSpace=wrap;rounded=0;fontStyle=1;fontSize=26;" vertex="1" parent="1">
          <mxGeometry x="-235" y="-614" width="250" height="30" as="geometry" />
        </mxCell>
        <mxCell id="G4l_W7ruIQoK3Dyy_zI6-5" value="" style="endArrow=none;html=1;rounded=0;fontSize=15;strokeWidth=5;" edge="1" parent="1">
          <mxGeometry width="50" height="50" relative="1" as="geometry">
            <mxPoint x="-270" y="-752" as="sourcePoint" />
            <mxPoint x="1110" y="-752" as="targetPoint" />
          </mxGeometry>
        </mxCell>
        <mxCell id="G4l_W7ruIQoK3Dyy_zI6-6" value="" style="endArrow=none;html=1;rounded=0;strokeWidth=5;" edge="1" parent="1">
          <mxGeometry width="50" height="50" relative="1" as="geometry">
            <mxPoint x="540" y="-1160" as="sourcePoint" />
            <mxPoint x="540" y="-390" as="targetPoint" />
          </mxGeometry>
        </mxCell>
      </root>
    </mxGraphModel>
  </diagram>
</mxfile>
